<svg width="28" height="28" viewBox="0 0 28 28" fill="none" xmlns="http://www.w3.org/2000/svg">
<rect width="28" height="27.4878" rx="13.7439" fill="#0057FF"/>
<path d="M10.7521 7.98663C11.2909 7.98663 11.7882 8.02732 12.2441 8.14938C12.7 8.23076 13.073 8.39351 13.4046 8.59694C13.7362 8.80038 13.9848 9.08519 14.1506 9.45137C14.3164 9.81756 14.3993 10.2651 14.3993 10.7534C14.3993 11.323 14.2749 11.8112 13.9848 12.1774C13.7362 12.5436 13.3217 12.8691 12.8244 13.1132C13.5289 13.3167 14.0677 13.6828 14.3993 14.1711C14.7308 14.6593 14.9381 15.2696 14.9381 15.9613C14.9381 16.5309 14.8137 17.0192 14.6065 17.4261C14.3993 17.8329 14.0677 18.1991 13.6947 18.4432C13.3217 18.6874 12.8658 18.8908 12.3685 19.0129C11.8711 19.1349 11.3738 19.2163 10.8764 19.2163H5.32275V7.98663H10.7521ZM10.4205 12.5436C10.8764 12.5436 11.2494 12.4215 11.5396 12.2181C11.8297 12.0147 11.954 11.6485 11.954 11.2009C11.954 10.9568 11.9126 10.7127 11.8297 10.5499C11.7468 10.3872 11.6224 10.2651 11.4567 10.1431C11.2909 10.0617 11.1251 9.98031 10.9179 9.93962C10.7106 9.89893 10.5034 9.89893 10.2548 9.89893H7.85092V12.5436H10.4205ZM10.5449 17.3447C10.7935 17.3447 11.0422 17.304 11.2494 17.2633C11.4567 17.2226 11.6639 17.1413 11.8297 17.0192C11.9955 16.8971 12.1198 16.7751 12.2441 16.5716C12.327 16.3682 12.4099 16.1241 12.4099 15.8393C12.4099 15.2696 12.2441 14.8628 11.9126 14.578C11.581 14.3338 11.1251 14.2118 10.5863 14.2118H7.85092V17.3447H10.5449ZM18.5438 17.304C18.8754 17.6295 19.3727 17.7922 20.0359 17.7922C20.4918 17.7922 20.9062 17.6702 21.2378 17.4668C21.5693 17.2226 21.7766 16.9785 21.8594 16.7344H23.8903C23.5587 17.7109 23.0614 18.4026 22.3982 18.8501C21.7351 19.257 20.9477 19.5011 19.9944 19.5011C19.3313 19.5011 18.751 19.379 18.2123 19.1756C17.6735 18.9722 17.259 18.6874 16.886 18.2805C16.513 17.9143 16.2229 17.4668 16.0571 16.9378C15.8499 16.4089 15.767 15.8393 15.767 15.1883C15.767 14.578 15.8499 14.0083 16.0571 13.4794C16.2643 12.9505 16.5544 12.5029 16.9275 12.096C17.3005 11.7299 17.7564 11.4044 18.2537 11.2009C18.7925 10.9975 19.3313 10.8754 19.9944 10.8754C20.699 10.8754 21.3207 10.9975 21.8594 11.2823C22.3982 11.5671 22.8127 11.8926 23.1443 12.3809C23.4758 12.8284 23.7245 13.3573 23.8903 13.927C23.9732 14.4966 24.0146 15.0662 23.9732 15.7172H17.9636C17.9636 16.3682 18.2123 16.9785 18.5438 17.304ZM21.1549 13.0318C20.8648 12.747 20.4089 12.5843 19.8701 12.5843C19.4971 12.5843 19.2069 12.6657 18.9583 12.7877C18.7096 12.9098 18.5438 13.0725 18.378 13.2353C18.2123 13.398 18.1294 13.6015 18.0879 13.8049C18.0465 14.0083 18.005 14.1711 18.005 14.3338H21.7351C21.6522 13.7235 21.445 13.3167 21.1549 13.0318ZM17.5077 8.75969H22.1496V9.85824H17.5077V8.75969Z" fill="white"/>
</svg>
