<svg width="32" height="32" viewBox="0 0 32 32" fill="none" xmlns="http://www.w3.org/2000/svg">
<path fill-rule="evenodd" clip-rule="evenodd" d="M16 0C7.16347 0 0 7.16347 0 16C0 24.8365 7.16347 32 16 32C24.8365 32 32 24.8365 32 16C32 7.16347 24.8365 0 16 0ZM15.9759 17.3462L9.99911 13.0077V22.1533H9.00058C8.44424 22.1533 8.00204 21.7111 8.00204 21.1548V11.0413C8.00204 10.999 8.00464 10.9593 8.00958 10.9221C8.02771 10.7634 8.08558 10.6081 8.18751 10.4707C8.51558 10.0285 9.15751 9.92866 9.61398 10.2567L15.9902 14.8927L22.4092 10.1997C22.8514 9.8716 23.479 9.97146 23.8071 10.4279C23.9815 10.663 24.035 10.9504 23.9782 11.2174V21.1691C23.9782 21.7111 23.536 22.1533 22.9798 22.1533H21.9812V12.9859L15.9759 17.3462Z" fill="white"/>
</svg>
