<svg width="28" height="29" viewBox="0 0 28 29" fill="none" xmlns="http://www.w3.org/2000/svg">
<rect width="28" height="28.3745" rx="14" fill="#0077B5"/>
<path d="M21.773 20.8818C20.8542 20.8597 19.9573 20.8597 19.0386 20.8818C18.8417 20.8818 18.798 20.8375 18.798 20.638C18.798 18.9976 18.798 17.335 18.798 15.6946C18.798 15.3178 18.7761 14.9409 18.6667 14.5863C18.3386 13.4335 17.0261 13.0124 16.0854 13.7882C15.5823 14.1872 15.3854 14.7414 15.3854 15.4065C15.3854 16.9582 15.3854 18.5099 15.3854 20.0616C15.3854 20.2612 15.3636 20.4607 15.3854 20.6823C15.4073 20.8597 15.3198 20.904 15.1667 20.8818C14.2261 20.8818 13.3073 20.8818 12.3667 20.8818C12.1917 20.8818 12.1479 20.8375 12.1479 20.6602C12.1698 19.2636 12.1698 17.8671 12.1698 16.4483C12.1698 14.7193 12.1698 12.9902 12.1479 11.2833C12.1479 11.0838 12.1917 11.0394 12.3667 11.0394C13.3073 11.0394 14.2261 11.0394 15.1667 11.0394C15.3417 11.0394 15.3854 11.0838 15.3854 11.2611C15.3854 11.6158 15.3854 11.9705 15.3854 12.3917C15.4511 12.3252 15.4729 12.303 15.4948 12.2808C16.348 11.0173 17.5511 10.6626 18.973 10.8843C20.6136 11.1503 21.6636 12.303 21.9261 14.0764C21.9917 14.4976 22.0136 14.9188 22.0136 15.34C22.0136 17.1134 22.0136 18.8646 22.0136 20.638C22.0136 20.8153 21.9698 20.8818 21.773 20.8818Z" fill="white"/>
<path d="M10.3978 15.9606C10.3978 17.5124 10.3978 19.0641 10.3978 20.6158C10.3978 20.8153 10.354 20.8818 10.1571 20.8818C9.23838 20.8597 8.31963 20.8818 7.40088 20.8818C7.22588 20.8818 7.18213 20.8375 7.18213 20.6602C7.18213 17.5345 7.18213 14.3867 7.18213 11.2611C7.18213 11.1059 7.22588 11.0394 7.40088 11.0394C8.3415 11.0394 9.28213 11.0394 10.2228 11.0394C10.4196 11.0394 10.4415 11.1059 10.4415 11.2833C10.3978 12.835 10.3978 14.3867 10.3978 15.9606Z" fill="white"/>
<path d="M10.5512 8.46803C10.3324 9.35473 9.43555 9.86459 8.40742 9.68724C7.31367 9.5099 6.70117 8.42369 7.09492 7.35965C7.35742 6.69462 7.9918 6.2956 8.80117 6.31777C10.0262 6.2956 10.8355 7.29315 10.5512 8.46803Z" fill="white"/>
</svg>
