<svg width="28" height="28" viewBox="0 0 28 28" fill="none" xmlns="http://www.w3.org/2000/svg">
<rect width="28" height="27.4878" rx="13.7439" fill="#292929"/>
<path d="M22.4582 20.4195L21.1927 19.176C21.0595 19.1106 20.9929 18.9142 20.9929 18.7833V8.83536C20.9929 8.70447 21.0595 8.50813 21.1927 8.37723L22.4582 6.93739V6.87195H17.9293L14.5326 15.3146L10.6698 6.87195H6.00771V6.93739L7.20653 8.57357C7.47293 8.83536 7.53954 9.22804 7.53954 9.55528V16.7545C7.60614 17.1472 7.53954 17.6053 7.33973 17.998L5.5415 20.4195V20.485H10.3368V20.4195L8.53855 18.0634C8.33875 17.6707 8.27215 17.278 8.33875 16.8199V10.2752C8.40535 10.4061 8.47195 10.4061 8.53855 10.6679L13.0674 20.6159H13.134L17.5297 9.81707C17.4631 10.2098 17.4631 10.6679 17.4631 10.9951V18.7179C17.4631 18.9142 17.3965 19.0451 17.2633 19.176L15.9313 20.4195V20.485H22.4582V20.4195Z" fill="white"/>
</svg>
