<svg width="30" height="30" viewBox="0 0 30 30" fill="none" xmlns="http://www.w3.org/2000/svg">
<path d="M5.3125 0H24.6875C27.625 0 30 2.4359 30 5.44872V24.5513C30 27.5641 27.625 30 24.6875 30H5.3125C2.375 30 0 27.5641 0 24.5513V5.44872C0 2.4359 2.375 0 5.3125 0Z" fill="#00005B"/>
<path d="M7.125 21.0387V7.84637C7.125 7.75662 7.1625 7.70534 7.25 7.70534C7.4625 7.70534 7.6625 7.70534 7.95 7.69252C8.25 7.6797 8.5625 7.6797 8.9 7.66688C9.2375 7.65406 9.6 7.65406 9.9875 7.64124C10.375 7.62842 10.75 7.62842 11.125 7.62842C12.15 7.62842 13 7.75662 13.7 8.02585C14.325 8.2438 14.9 8.60278 15.375 9.07714C15.775 9.48739 16.0875 9.98739 16.2875 10.5387C16.475 11.0771 16.575 11.6284 16.575 12.2053C16.575 13.3079 16.325 14.2182 15.825 14.9361C15.325 15.6541 14.625 16.1925 13.8125 16.5002C12.9625 16.8207 12.025 16.9361 11 16.9361C10.7 16.9361 10.5 16.9361 10.375 16.9233C10.25 16.9105 10.075 16.9105 9.8375 16.9105V21.0259C9.85 21.1156 9.7875 21.1925 9.7 21.2053C9.6875 21.2053 9.675 21.2053 9.65 21.2053H7.275C7.175 21.2053 7.125 21.1541 7.125 21.0387ZM9.85 10.1797V14.4874C10.025 14.5002 10.1875 14.513 10.3375 14.513H11C11.4875 14.513 11.975 14.4361 12.4375 14.2823C12.8375 14.1669 13.1875 13.9233 13.4625 13.6028C13.725 13.2823 13.85 12.8464 13.85 12.2823C13.8625 11.8848 13.7625 11.4874 13.5625 11.1412C13.35 10.8079 13.05 10.5515 12.6875 10.4105C12.225 10.2182 11.725 10.1412 11.2125 10.1541C10.8875 10.1541 10.6 10.1541 10.3625 10.1669C10.1125 10.1541 9.9375 10.1669 9.85 10.1797Z" fill="#9999FF"/>
<path d="M18.3266 10.9232H20.5141C20.6391 10.9232 20.7391 11.0129 20.7766 11.1283C20.8141 11.2309 20.8391 11.3335 20.8516 11.4488C20.8766 11.577 20.9016 11.7181 20.9141 11.8463C20.9266 11.9873 20.9391 12.1411 20.9391 12.3078C21.3141 11.8591 21.7641 11.4873 22.2766 11.2052C22.8516 10.8719 23.5141 10.7052 24.1766 10.7052C24.2641 10.6924 24.3391 10.7565 24.3516 10.8463C24.3516 10.8591 24.3516 10.8719 24.3516 10.8976V13.3976C24.3516 13.5001 24.2891 13.5386 24.1516 13.5386C23.7016 13.5258 23.2391 13.5642 22.8016 13.6668C22.4391 13.7437 22.0891 13.8591 21.7516 14.0129C21.5141 14.1283 21.2891 14.2822 21.1141 14.4873V21.0258C21.1141 21.154 21.0641 21.2052 20.9516 21.2052H18.4891C18.3891 21.2181 18.3016 21.154 18.2891 21.0514C18.2891 21.0386 18.2891 21.0129 18.2891 21.0001V13.8976C18.2891 13.5899 18.2891 13.2693 18.2766 12.936C18.2641 12.6027 18.2641 12.2693 18.2516 11.936C18.2516 11.6411 18.2266 11.3591 18.2016 11.0642C18.1891 11.0001 18.2266 10.936 18.2891 10.9232C18.2891 10.9104 18.3141 10.9104 18.3266 10.9232Z" fill="#9999FF"/>
</svg>
