<svg width="32" height="32" viewBox="0 0 32 32" fill="none" xmlns="http://www.w3.org/2000/svg">
<path fill-rule="evenodd" clip-rule="evenodd" d="M16 0C24.8366 0 32 7.16344 32 16C32 24.8366 24.8366 32 16 32C7.16344 32 0 24.8366 0 16C0 7.16344 7.16344 0 16 0ZM20.2627 13.9723C20.1849 13.3401 19.9906 12.8437 19.6455 12.4039C19.1974 11.8378 18.6248 11.4987 17.777 11.2976C17.2245 11.1636 17.0013 11.1789 16.8015 11.3615C16.6153 11.5325 16.579 11.8753 16.7212 12.0973C16.8213 12.2584 16.9366 12.3162 17.2576 12.3792C17.685 12.4578 17.9804 12.5599 18.2491 12.7135C18.8194 13.0428 19.0849 13.5581 19.1134 14.3923C19.1267 14.784 19.1605 14.9044 19.2973 15.0434C19.5509 15.2973 20.0021 15.2479 20.1936 14.944C20.2638 14.8295 20.2745 14.7796 20.2819 14.5136C20.2868 14.349 20.2798 14.1039 20.2627 13.9723ZM20.2703 10.0934C21.6262 11.1899 22.3838 12.7482 22.4964 14.6851C22.5438 15.448 22.4809 15.6965 22.2117 15.838C21.9688 15.9691 21.6937 15.926 21.5049 15.7285C21.3798 15.6001 21.3318 15.4245 21.3336 15.1135C21.3391 14.2537 21.141 13.2934 20.819 12.6272C20.4462 11.8517 19.8699 11.1917 19.1451 10.7093C18.5101 10.2855 17.6698 9.99925 16.855 9.92797C16.3266 9.88174 16.1378 9.79223 16.0364 9.53888C15.9736 9.38733 15.9902 9.12532 16.0638 9.00797C16.1335 8.89976 16.2898 8.7801 16.4003 8.74847C16.5174 8.7143 17.2001 8.77403 17.5709 8.84771C18.583 9.05373 19.5064 9.47736 20.2703 10.0934ZM24.9682 22.1442C24.9303 22.0335 24.8419 21.8627 24.7787 21.7647C24.3808 21.1638 22.243 19.4908 21.1757 18.9437C20.5662 18.6306 20.1147 18.5263 19.7799 18.6242C19.4199 18.7255 19.2305 18.8931 18.6273 19.6426C18.3842 19.9431 18.1347 20.2246 18.0684 20.2688C17.9042 20.3827 17.5821 20.4744 17.3547 20.4744C16.8274 20.4712 15.8706 20.1297 15.1348 19.6806C14.5633 19.3327 13.8307 18.7097 13.2686 18.093C12.6054 17.3687 12.1539 16.7299 11.797 16.0088C11.336 15.0822 11.2192 14.5161 11.4118 14.1018C11.4591 13.9974 11.5223 13.8868 11.5507 13.8519C11.5791 13.8203 11.876 13.5768 12.2044 13.3111C12.8486 12.7988 12.9528 12.6818 13.0728 12.3308C13.2243 11.8848 13.1833 11.4294 12.9496 10.9709C12.7696 10.623 12.2991 9.86395 11.9581 9.37376C11.5065 8.72862 10.3823 7.34973 10.1581 7.16309C9.75392 6.83421 9.23609 6.77725 8.66447 6.99868C8.06139 7.23271 6.93086 8.14352 6.44771 8.77921C6.01193 9.35478 5.84462 9.76274 5.81933 10.3004C5.79725 10.7431 5.83513 10.9266 6.06881 11.4927C7.89717 15.9329 10.6255 19.4782 14.3738 22.2929C16.3316 23.7634 18.3621 24.883 20.4683 25.6484C21.6967 26.0943 22.2304 26.1164 22.8588 25.7496C23.124 25.5914 23.7808 24.9178 24.1471 24.4276C24.7534 23.6116 24.9776 23.2353 25.0408 22.9349C25.085 22.7293 25.0503 22.372 24.9682 22.1442ZM24.1608 12.1337C24.5454 13.1356 24.7299 14.0343 24.7703 15.13C24.7767 15.3464 24.7737 15.7429 24.7597 16.0116C24.7305 16.5265 24.7026 16.6288 24.5543 16.7651C24.3161 16.9886 23.8516 16.9353 23.6755 16.6659C23.5835 16.5214 23.5706 16.4155 23.5884 15.8138C23.6395 14.0342 23.2795 12.6408 22.4125 11.2474C21.3763 9.57579 19.8265 8.4497 17.8112 7.89878C17.2972 7.75855 16.8641 7.67309 16.1905 7.5824C15.7517 7.52497 15.6557 7.50068 15.5474 7.43403C15.2202 7.22449 15.2158 6.69391 15.542 6.48119C15.7103 6.3689 15.8344 6.36388 16.3829 6.43413C17.9915 6.63514 19.4268 7.11311 20.6062 7.83537C21.4515 8.35376 21.9846 8.81946 22.6708 9.63508C23.3967 10.505 23.781 11.1481 24.1608 12.1337Z" fill="white"/>
</svg>
