<svg width="32" height="32" viewBox="0 0 32 32" fill="none" xmlns="http://www.w3.org/2000/svg">
<path fill-rule="evenodd" clip-rule="evenodd" d="M6.31491 20.1685L4.85013 20.6944L4.77148 24.9777L9.84205 23.157C8.10291 22.5827 6.83288 21.5724 6.31491 20.1685Z" fill="#FDBD39"/>
<path fill-rule="evenodd" clip-rule="evenodd" d="M7.0823 15.6382L2 17.4632L4.85096 20.6945L6.31574 20.1685C5.79929 18.7686 6.11778 17.1862 7.0823 15.6382Z" fill="#F69833"/>
<path fill-rule="evenodd" clip-rule="evenodd" d="M15.6349 9.45743C9.16309 11.7813 4.99074 16.5768 6.31575 20.1683L29.7523 11.7526C28.4273 8.16108 22.1067 7.1335 15.6349 9.45743Z" fill="#FECF33"/>
<path fill-rule="evenodd" clip-rule="evenodd" d="M20.4338 22.4633C26.9056 20.1394 31.0858 15.3652 29.753 11.7524L6.31641 20.1681C7.64924 23.7809 13.962 24.7872 20.4338 22.4633Z" fill="#EE6723"/>
<path fill-rule="evenodd" clip-rule="evenodd" d="M29.753 11.7524L6.31641 20.1681C6.77533 21.4121 8.52538 22.0249 10.9809 22.0249C13.3748 22.0249 16.4393 21.4429 19.6341 20.2956C26.1059 17.9717 30.6593 14.2091 29.753 11.7524Z" fill="#F69833"/>
<path fill-rule="evenodd" clip-rule="evenodd" d="M25.0882 9.896C22.6943 9.896 19.6298 10.4781 16.435 11.6253C9.96316 13.9492 5.40978 17.7118 6.31613 20.1685L29.7527 11.7528C29.2938 10.5088 27.5437 9.896 25.0882 9.896Z" fill="#FDBD39"/>
<path fill-rule="evenodd" clip-rule="evenodd" d="M23.7943 25.2045H23.7941C23.1046 25.2045 22.0873 24.5923 20.7705 23.3849C19.2126 21.9564 17.4281 19.8641 15.7456 17.4934C14.0631 15.1229 12.6806 12.7529 11.8527 10.82C10.9507 8.71365 10.8221 7.41852 11.4705 6.97058C11.6126 6.87246 11.784 6.82275 11.9798 6.82275C12.5071 6.82275 13.5347 7.20869 15.4348 9.04742L15.4764 9.0876L15.4708 9.14475C15.4578 9.27685 15.4458 9.41012 15.4351 9.54093L15.414 9.80068L15.2275 9.61607C13.1802 7.58864 12.279 7.36976 11.9865 7.36976C11.9031 7.36976 11.8366 7.38643 11.789 7.41934C11.5078 7.61357 11.4897 8.56488 12.3642 10.6068C13.1773 12.5052 14.5397 14.8393 16.2004 17.1792C17.8612 19.5193 19.6184 21.5806 21.1484 22.9836C22.7983 24.4964 23.5418 24.6598 23.7849 24.6598C23.8688 24.6598 23.937 24.642 23.9876 24.6071C24.2843 24.4022 24.2846 23.3831 23.3094 21.1853L23.2647 21.0844L23.3627 21.0317C23.4607 20.979 23.5555 20.927 23.6444 20.8774L23.7618 20.8118L23.8159 20.9337C24.5074 22.4909 25.1537 24.4702 24.3062 25.0558C24.1633 25.1545 23.9911 25.2045 23.7943 25.2045ZM23.7941 24.9643H23.7943L23.7942 25.0844L23.7941 24.9643Z" fill="#EE6723"/>
<path fill-rule="evenodd" clip-rule="evenodd" d="M20.5894 22.398L20.5795 22.5177C20.4159 24.5077 19.9851 26.9002 18.8618 26.997C18.8392 26.999 18.8158 27 18.7924 27C18.0293 27 17.3074 25.9253 16.6467 23.8058C16.0216 21.8006 15.5365 19.1084 15.2808 16.225C15.0251 13.3422 15.029 10.6077 15.2916 8.52535C15.5779 6.25623 16.123 5.07122 16.9115 5.0032C16.9348 5.00109 16.959 5 16.9828 5C17.5364 5 18.3707 5.61611 19.2247 8.48587L18.6671 8.59167C18.3819 7.63267 18.0712 6.8527 17.7626 6.31674C17.4773 5.821 17.1998 5.548 16.9813 5.548C16.9741 5.548 16.9669 5.54829 16.9597 5.54889C16.6179 5.5784 16.1202 6.39336 15.8426 8.59302C15.5847 10.638 15.5815 13.3315 15.8339 16.1773C16.0864 19.0235 16.5635 21.6756 17.1774 23.6448C17.4523 24.5268 17.7539 25.2537 18.0495 25.7469C18.322 26.2017 18.5858 26.4522 18.7922 26.4522C18.7993 26.4522 18.8064 26.4519 18.8134 26.4513C19.1405 26.4231 19.7568 25.5751 20.0162 22.5913L20.5894 22.398Z" fill="#EE6723"/>
</svg>
